<?xml version="1.0" encoding="UTF-8" standalone="no"?>
<!-- Created with Inkscape (http://www.inkscape.org/) -->

<svg
   version="1.1"
   id="svg2"
   width="666.66669"
   height="666.66669"
   viewBox="0 0 666.66669 666.66669"
   sodipodi:docname="6897997.ai"
   xmlns:inkscape="http://www.inkscape.org/namespaces/inkscape"
   xmlns:sodipodi="http://sodipodi.sourceforge.net/DTD/sodipodi-0.dtd"
   xmlns="http://www.w3.org/2000/svg"
   xmlns:svg="http://www.w3.org/2000/svg">
  <defs
     id="defs6">
    <clipPath
       clipPathUnits="userSpaceOnUse"
       id="clipPath18">
      <path
         d="M 0,500 H 500 V 0 H 0 Z"
         id="path16" />
    </clipPath>
    <clipPath
       clipPathUnits="userSpaceOnUse"
       id="clipPath46">
      <path
         d="M 0,0 H 500 V 500 H 0 Z"
         id="path44" />
    </clipPath>
  </defs>
  <sodipodi:namedview
     id="namedview4"
     pagecolor="#ffffff"
     bordercolor="#000000"
     borderopacity="0.25"
     inkscape:showpageshadow="2"
     inkscape:pageopacity="0.0"
     inkscape:pagecheckerboard="0"
     inkscape:deskcolor="#d1d1d1" />
  <g
     id="g8"
     inkscape:groupmode="layer"
     inkscape:label="6897997"
     transform="matrix(1.3333333,0,0,-1.3333333,0,666.66667)">
    <path
       d="M 0,0 H 500 V 500 H 0 Z"
       style="fill:#ffffff;fill-opacity:1;fill-rule:nonzero;stroke:none"
       id="path10" />
    <g
       id="g12">
      <g
         id="g14"
         clip-path="url(#clipPath18)">
        <g
           id="g20"
           transform="translate(439.9694,263.5021)">
          <path
             d="m 0,0 c -14.606,32.226 -44.927,51.782 -67.852,77.366 -21.363,23.841 -30.474,55.614 -51.655,79.259 -26.481,29.562 -69.296,36.069 -106.857,30.766 -11.688,-1.65 -23.142,-4.435 -33.898,-8.093 -10.801,-3.673 -21.348,-8.321 -31.323,-13.861 -33.064,-18.363 -57.759,-44.818 -72.503,-79.657 -12.546,-29.648 -17.42,-62.355 -12.306,-94.249 8.426,-52.548 41.284,-100.011 85.748,-129.255 44.463,-29.245 99.663,-40.657 152.565,-34.862 42.759,4.684 85.595,21.219 114.56,53.019 C 5.443,-87.767 17.759,-39.177 0,0"
             style="fill:#fff2e3;fill-opacity:1;fill-rule:nonzero;stroke:none"
             id="path22" />
        </g>
        <g
           id="g24"
           transform="translate(306.4723,420.3561)">
          <path
             d="m 0,0 c -19.863,2.835 -18.96,-16.886 -18.96,-16.886 l 10.042,-1.123 c -2.156,5.486 1.124,11.264 7.579,10.944 6.455,-0.32 5.303,-8.278 1.877,-11.538 -3.003,-2.856 -7.599,-6.788 -7.599,-6.788 l -2.297,-9.806 9.321,-1.873 0.894,9.313 c 0,0 5.047,2.408 9.276,7.833 C 12.205,-17.266 15.368,-2.194 0,0"
             style="fill:#f15d56;fill-opacity:1;fill-rule:nonzero;stroke:none"
             id="path26" />
        </g>
        <g
           id="g28"
           transform="translate(300.9557,380.1496)">
          <path
             d="m 0,0 c -3.137,0.631 -6.053,-0.717 -6.514,-3.009 -0.461,-2.293 1.708,-4.662 4.844,-5.293 3.137,-0.631 6.053,0.717 6.514,3.01 C 5.305,-3 3.136,-0.63 0,0"
             style="fill:#f15d56;fill-opacity:1;fill-rule:nonzero;stroke:none"
             id="path30" />
        </g>
        <g
           id="g32"
           transform="translate(327.5836,375.777)">
          <path
             d="m 0,0 c -10.377,7.125 -15.361,-4.214 -15.361,-4.214 l 5.333,-3.428 c 0.315,3.685 3.768,6.02 7.308,4.043 3.54,-1.978 0.676,-6.131 -2.157,-7.009 -2.484,-0.77 -6.162,-1.701 -6.162,-1.701 l -4.023,-4.873 4.718,-3.649 3.097,4.987 c 0,0 3.509,-0.052 7.395,1.821 C 2.054,-13.105 8.029,-5.513 0,0"
             style="fill:#f15d56;fill-opacity:1;fill-rule:nonzero;stroke:none"
             id="path34" />
        </g>
        <g
           id="g36"
           transform="translate(313.2867,354.7092)">
          <path
             d="M 0,0 C -1.588,1.228 -3.603,1.282 -4.5,0.122 -5.397,-1.039 -4.838,-2.975 -3.25,-4.203 -1.663,-5.431 0.352,-5.485 1.249,-4.325 2.146,-3.164 1.588,-1.228 0,0"
             style="fill:#f15d56;fill-opacity:1;fill-rule:nonzero;stroke:none"
             id="path38" />
        </g>
      </g>
    </g>
    <g
       id="g40">
      <g
         id="g42"
         clip-path="url(#clipPath46)">
        <g
           id="g48"
           transform="translate(190.4171,152.1393)">
          <path
             d="m 0,0 -0.302,-289.309 h 41.55 L 56.367,5.016 Z"
             style="fill:#4a51ac;fill-opacity:1;fill-rule:nonzero;stroke:none"
             id="path50" />
        </g>
        <g
           id="g52"
           transform="translate(295.5729,153.3688)">
          <path
             d="M 0,0 17.293,-290.538 H -27.222 L -59.379,8.476 Z"
             style="fill:#4a51ac;fill-opacity:1;fill-rule:nonzero;stroke:none"
             id="path54" />
        </g>
        <g
           id="g56"
           transform="translate(242.3722,122.6452)">
          <path
             d="m 0,0 c -0.171,0 -0.313,0.136 -0.318,0.309 l -1.164,37.907 c -0.005,0.176 0.133,0.324 0.308,0.329 0.191,-0.008 0.324,-0.132 0.329,-0.309 L 0.319,0.329 C 0.324,0.153 0.186,0.005 0.01,0 Z"
             style="fill:#333b87;fill-opacity:1;fill-rule:nonzero;stroke:none"
             id="path58" />
        </g>
        <g
           id="g60"
           transform="translate(242.1832,128.7975)">
          <path
             d="M 0,0 H -4.882 C -5.053,0 -5.193,0.134 -5.201,0.305 L -6.309,26.24 c -0.007,0.176 0.13,0.325 0.306,0.333 0.177,-0.003 0.323,-0.13 0.332,-0.305 L -4.577,0.637 H 0 C 0.175,0.637 0.319,0.494 0.319,0.318 0.319,0.143 0.175,0 0,0"
             style="fill:#333b87;fill-opacity:1;fill-rule:nonzero;stroke:none"
             id="path62" />
        </g>
        <g
           id="g64"
           transform="translate(290.9967,131.3561)">
          <path
             d="m 0,0 c -2.71,0 -5.167,0.892 -7.326,2.659 -8.09,6.623 -9.406,23.141 -9.458,23.84 -0.014,0.176 0.118,0.328 0.294,0.341 0.166,0.034 0.327,-0.118 0.341,-0.294 C -16.137,26.377 -14.8,9.6 -6.922,3.15 -4.479,1.151 -1.627,0.344 1.546,0.736 1.74,0.753 1.881,0.633 1.902,0.46 1.925,0.284 1.8,0.126 1.626,0.104 1.074,0.035 0.531,0 0,0"
             style="fill:#333b87;fill-opacity:1;fill-rule:nonzero;stroke:none"
             id="path66" />
        </g>
        <g
           id="g68"
           transform="translate(192.1622,130.4587)">
          <path
             d="m 0,0 c -0.088,0 -0.178,0.038 -0.24,0.109 -0.116,0.134 -0.101,0.335 0.031,0.451 0.086,0.074 8.501,7.607 6.875,25.336 -0.017,0.173 0.113,0.329 0.289,0.345 C 7.13,26.269 7.284,26.128 7.301,25.952 8.96,7.876 0.296,0.153 0.209,0.077 0.148,0.026 0.075,0 0,0"
             style="fill:#333b87;fill-opacity:1;fill-rule:nonzero;stroke:none"
             id="path70" />
        </g>
        <g
           id="g72"
           transform="translate(323.2926,202.487)">
          <path
             d="m 0,0 c -5.862,0 -11.326,3.703 -13.292,9.566 l -30.444,90.78 c -2.462,7.343 1.492,15.29 8.834,17.752 7.343,2.468 15.291,-1.494 17.752,-8.834 L 13.294,18.484 C 15.756,11.141 11.801,3.194 4.46,0.732 2.98,0.235 1.478,0 0,0"
             style="fill:#ffaf9d;fill-opacity:1;fill-rule:nonzero;stroke:none"
             id="path74" />
        </g>
        <g
           id="g76"
           transform="translate(310.8903,222.6599)">
          <path
             d="m 0,0 37.371,80.631 c 2.101,4.532 7.478,6.503 12.01,4.403 4.222,-1.957 6.22,-6.756 4.778,-11.066 L 26.064,-10.345 C 23.612,-17.703 15.659,-21.68 8.302,-19.229 0.943,-16.776 -3.034,-8.823 -0.582,-1.466 -0.415,-0.965 -0.216,-0.468 0,0"
             style="fill:#ffaf9d;fill-opacity:1;fill-rule:nonzero;stroke:none"
             id="path78" />
        </g>
        <g
           id="g80"
           transform="translate(348.027,298.6545)">
          <path
             d="m 0,0 c -1.546,4.675 3.838,10.208 8.23,12.625 7.851,4.319 27.19,6.618 28.127,5.04 0.938,-1.578 -10.425,-6.7 -10.425,-6.7 0,0 8.573,0.235 11.692,-1.026 0,0 8.531,9.964 10.352,9.413 1.821,-0.551 -1.737,-6.749 -1.737,-6.749 0,0 8.308,5.523 9.473,4.411 C 56.876,15.902 45.11,5.578 42.394,3.917 39.678,2.257 23.647,-4.864 14.811,-5.66 5.974,-6.457 1.485,-4.494 0,0"
             style="fill:#ffaf9d;fill-opacity:1;fill-rule:nonzero;stroke:none"
             id="path82" />
        </g>
        <g
           id="g84"
           transform="translate(379.9537,298.3918)">
          <path
             d="M 0,0 C -0.075,0 -0.15,0.032 -0.202,0.094 -0.296,0.205 -0.281,0.372 -0.17,0.465 2.286,2.531 6.143,6.178 6.038,7.168 6.034,7.214 6.019,7.236 5.979,7.258 4.958,7.795 -0.792,4.958 -4.178,3.041 L -4.249,3 -4.331,3.007 c -0.038,0.005 -3.991,0.345 -7.451,-0.487 -0.148,-0.036 -0.284,0.054 -0.319,0.194 -0.034,0.142 0.053,0.284 0.195,0.318 3.263,0.784 6.944,0.552 7.539,0.507 C -2.71,4.475 4.679,8.553 6.226,7.723 6.423,7.618 6.539,7.445 6.562,7.223 6.728,5.664 1.267,0.984 0.17,0.062 0.12,0.021 0.06,0 0,0"
             style="fill:#cc6756;fill-opacity:1;fill-rule:nonzero;stroke:none"
             id="path86" />
        </g>
        <g
           id="g88"
           transform="translate(383.3942,305.1618)">
          <path
             d="m 0,0 c -0.055,0 -0.108,0.016 -0.155,0.051 -0.118,0.086 -0.143,0.25 -0.057,0.368 L 1.876,3.265 C 1.963,3.383 2.13,3.408 2.245,3.321 2.362,3.236 2.388,3.071 2.302,2.954 L 0.213,0.108 C 0.161,0.037 0.081,0 0,0"
             style="fill:#cc6756;fill-opacity:1;fill-rule:nonzero;stroke:none"
             id="path90" />
        </g>
        <g
           id="g92"
           transform="translate(384.4391,299.9313)">
          <path
             d="m 0,0 c -0.091,0 -0.18,0.047 -0.229,0.13 -0.072,0.127 -0.03,0.288 0.096,0.361 1.439,0.836 5.287,3.154 5.814,3.836 0.65,0.847 3.678,6.798 3.709,6.858 0.065,0.13 0.225,0.182 0.354,0.115 0.13,-0.066 0.182,-0.225 0.115,-0.354 C 9.734,10.699 6.779,4.891 6.099,4.006 5.414,3.116 0.671,0.348 0.132,0.036 0.091,0.011 0.045,0 0,0"
             style="fill:#cc6756;fill-opacity:1;fill-rule:nonzero;stroke:none"
             id="path94" />
        </g>
        <g
           id="g96"
           transform="translate(312.1207,226.4167)">
          <path
             d="M 0,0 C -0.072,-0.018 -0.151,-0.011 -0.222,0.026 -0.379,0.106 -0.44,0.299 -0.359,0.455 L 8.147,16.96 c 0.082,0.157 0.276,0.217 0.429,0.138 0.157,-0.081 0.219,-0.274 0.138,-0.429 L 0.207,0.164 C 0.163,0.078 0.086,0.021 0,0"
             style="fill:#cc6756;fill-opacity:1;fill-rule:nonzero;stroke:none"
             id="path98" />
        </g>
        <g
           id="g100"
           transform="translate(280.7906,324.5129)">
          <path
             d="m 0,0 c 20.94,2.669 26.014,-2.511 28.794,-9.949 2.779,-7.437 16.239,-52.661 16.239,-52.661 0,0 9.825,23.891 12.248,25.708 2.423,1.817 22.007,-5.384 23.488,-9.355 1.48,-3.971 -15.278,-57.539 -21.468,-68.307 -6.192,-10.768 -23.931,-14.671 -32.021,-1.346 -8.09,13.325 -18.644,48.916 -18.644,48.916 z"
             style="fill:#50c2af;fill-opacity:1;fill-rule:nonzero;stroke:none"
             id="path102" />
        </g>
        <g
           id="g104"
           transform="translate(108.9723,352.9299)">
          <path
             d="m 0,0 80.32,31.534 c 4.65,1.825 9.9,-0.464 11.726,-5.115 1.697,-4.321 -0.162,-9.16 -4.164,-11.288 L 11.74,-25.466 c -6.844,-3.65 -15.351,-1.059 -19,5.785 -3.65,6.845 -1.06,15.351 5.785,19.001 0.48,0.256 0.98,0.485 1.475,0.68"
             style="fill:#ffaf9d;fill-opacity:1;fill-rule:nonzero;stroke:none"
             id="path106" />
        </g>
        <g
           id="g108"
           transform="translate(187.7575,369.3893)">
          <path
             d="m 0,0 c 0,0 14.817,-21.168 17.522,-21.302 2.705,-0.134 -3.976,15.918 -3.976,15.918 0,0 40.754,6.733 40.704,9.104 -0.049,2.371 -18.071,0.193 -18.071,0.193 0,0 19.671,5.077 19.121,7.459 C 54.802,13.53 34.045,9.46 34.045,9.46 c 0,0 19.89,7.478 18.245,9 -1.645,1.523 -20.246,-3.871 -20.246,-3.871 0,0 15.099,7.947 13.897,8.892 C 44.739,24.426 27.885,19.262 27.885,19.262 19.541,18.14 9.601,17.697 5.748,16.65 -9.56,12.492 0,0 0,0"
             style="fill:#ffaf9d;fill-opacity:1;fill-rule:nonzero;stroke:none"
             id="path110" />
        </g>
        <g
           id="g112"
           transform="translate(99.3737,339.2526)">
          <path
             d="m 0,0 c -0.067,1.723 0.185,3.487 0.794,5.21 2.579,7.302 10.589,11.13 17.89,8.552 l 92.152,-32.552 c 7.303,-2.577 11.132,-10.591 8.551,-17.89 -2.578,-7.301 -10.589,-11.129 -17.889,-8.55 L 9.345,-12.679 C 3.768,-10.71 0.216,-5.57 0,0"
             style="fill:#ffaf9d;fill-opacity:1;fill-rule:nonzero;stroke:none"
             id="path114" />
        </g>
        <g
           id="g116"
           transform="translate(127.0294,331.9557)">
          <path
             d="m 0,0 c -0.004,0.093 0.034,0.188 0.111,0.254 l 13.442,11.529 c 0.135,0.113 0.336,0.099 0.45,-0.035 0.113,-0.132 0.099,-0.335 -0.035,-0.45 L 0.526,-0.23 C 0.392,-0.344 0.191,-0.329 0.076,-0.195 0.028,-0.139 0.002,-0.07 0,0"
             style="fill:#cc6756;fill-opacity:1;fill-rule:nonzero;stroke:none"
             id="path118" />
        </g>
        <g
           id="g120"
           transform="translate(211.4259,325.8093)">
          <path
             d="m 0,0 -55.776,16.286 c 0,0 27.458,13.866 28.714,16.57 1.256,2.704 -6.371,19.663 -11.754,21.098 -5.385,1.436 -59.985,-20.565 -70.753,-27.825 -10.767,-7.259 -5.384,-22.691 5.114,-27.425 10.499,-4.734 99.332,-40.671 99.332,-40.671 z"
             style="fill:#50c2af;fill-opacity:1;fill-rule:nonzero;stroke:none"
             id="path122" />
        </g>
        <g
           id="g124"
           transform="translate(197.9074,259.5593)">
          <path
             d="m 0,0 c -4.055,-32.09 -7.728,-80.052 -8.868,-119.096 36.511,-3.164 72.548,-2.781 108.068,1.454 -2.982,33.884 -3.904,81.023 -0.821,117.949 L 82.883,64.954 42.716,61.145 13.519,66.25 Z"
             style="fill:#fd8280;fill-opacity:1;fill-rule:nonzero;stroke:none"
             id="path126" />
        </g>
        <g
           id="g128"
           transform="translate(273.8678,272.8278)">
          <path
             d="m 0,0 c -17.757,-4.38 -36.405,-5.216 -54.476,-2.338 -5.177,0.825 -10.301,1.952 -15.354,3.353 -2.619,0.726 -3.736,-3.341 -1.121,-4.067 18.179,-5.04 37.358,-6.434 56.068,-4.002 5.389,0.7 10.728,1.686 16.004,2.987 C 3.755,-3.417 2.64,0.651 0,0"
             style="fill:#f15d56;fill-opacity:1;fill-rule:nonzero;stroke:none"
             id="path130" />
        </g>
        <g
           id="g132"
           transform="translate(273.8678,262.132)">
          <path
             d="m 0,0 c -17.757,-4.38 -36.405,-5.216 -54.476,-2.337 -5.177,0.824 -10.301,1.952 -15.354,3.352 -2.619,0.727 -3.736,-3.341 -1.121,-4.066 18.179,-5.041 37.358,-6.435 56.068,-4.003 5.389,0.7 10.728,1.686 16.004,2.988 C 3.755,-3.417 2.64,0.651 0,0"
             style="fill:#f15d56;fill-opacity:1;fill-rule:nonzero;stroke:none"
             id="path134" />
        </g>
        <g
           id="g136"
           transform="translate(273.8678,251.4367)">
          <path
             d="m 0,0 c -17.757,-4.38 -36.405,-5.216 -54.476,-2.338 -5.177,0.825 -10.301,1.952 -15.354,3.353 -2.619,0.726 -3.736,-3.341 -1.121,-4.066 18.179,-5.041 37.358,-6.436 56.068,-4.003 5.389,0.7 10.728,1.685 16.004,2.987 C 3.755,-3.417 2.64,0.651 0,0"
             style="fill:#f15d56;fill-opacity:1;fill-rule:nonzero;stroke:none"
             id="path138" />
        </g>
        <g
           id="g140"
           transform="translate(207.5143,151.0407)">
          <path
             d="m 0,0 c 0,0 0.426,-12.181 -0.538,-13.168 -0.965,-0.986 -20.997,0.135 -21.872,1.347 -0.875,1.211 -0.337,11.473 -0.337,11.473 z"
             style="fill:#008a74;fill-opacity:1;fill-rule:nonzero;stroke:none"
             id="path142" />
        </g>
        <g
           id="g144"
           transform="translate(223.4743,323.7023)">
          <path
             d="m 0,0 c -11.594,-70.281 -13.402,-172.707 -14.883,-174.456 -1.481,-1.75 -21.939,-2.422 -24.362,0 -2.422,2.422 11.102,124.982 15.084,139.441 3.982,14.458 12.113,37.122 12.113,37.122 z"
             style="fill:#50c2af;fill-opacity:1;fill-rule:nonzero;stroke:none"
             id="path146" />
        </g>
        <g
           id="g148"
           transform="translate(223.4743,323.7023)">
          <path
             d="m 0,0 c -2.438,-16.26 -5.641,-40.583 -5.641,-40.583 -14.31,18.859 0.367,41.505 0.367,41.505 z"
             style="fill:#8ad9c9;fill-opacity:1;fill-rule:nonzero;stroke:none"
             id="path150" />
        </g>
        <g
           id="g152"
           transform="translate(304.3561,151.1979)">
          <path
             d="m 0,0 -39.706,-2.019 c 0,0 0.472,-10.767 1.75,-11.642 1.278,-0.875 35.735,-0.548 37.216,0.836 C 0.74,-11.44 0,0 0,0"
             style="fill:#008a74;fill-opacity:1;fill-rule:nonzero;stroke:none"
             id="path154" />
        </g>
        <g
           id="g156"
           transform="translate(262.7721,322.8044)">
          <path
             d="m 0,0 c -13.008,-111.229 -2.766,-172.616 -0.073,-174.5 2.691,-1.885 41.185,-2.02 43.205,1.211 2.018,3.23 -7.269,49.531 -7.942,62.587 -0.672,13.056 -0.855,50.577 -0.855,50.577 L 19.069,1.836 Z"
             style="fill:#50c2af;fill-opacity:1;fill-rule:nonzero;stroke:none"
             id="path158" />
        </g>
        <g
           id="g160"
           transform="translate(282.1051,270.9435)">
          <path
             d="m 0,0 c -1.328,-0.829 -2.839,-1.202 -4.402,-1.073 -1.686,0.14 -3.035,0.988 -4.369,1.959 -2.25,1.636 -5.619,3.315 -7.985,0.864 -0.943,-0.978 0.546,-2.47 1.49,-1.492 0.892,0.923 2.341,0.675 3.384,0.15 1.461,-0.736 2.631,-1.937 4.098,-2.666 2.801,-1.392 6.197,-1.217 8.847,0.437 C 2.213,-1.104 1.155,0.721 0,0"
             style="fill:#ffffff;fill-opacity:1;fill-rule:nonzero;stroke:none"
             id="path162" />
        </g>
        <g
           id="g164"
           transform="translate(282.1051,265.8732)">
          <path
             d="m 0,0 c -1.328,-0.829 -2.839,-1.202 -4.402,-1.072 -1.686,0.139 -3.035,0.987 -4.369,1.958 -2.25,1.636 -5.619,3.315 -7.985,0.864 -0.943,-0.977 0.546,-2.47 1.49,-1.492 0.892,0.923 2.341,0.675 3.384,0.15 1.461,-0.736 2.631,-1.937 4.098,-2.666 2.801,-1.392 6.197,-1.217 8.847,0.437 C 2.213,-1.104 1.155,0.721 0,0"
             style="fill:#ffffff;fill-opacity:1;fill-rule:nonzero;stroke:none"
             id="path166" />
        </g>
        <g
           id="g168"
           transform="translate(269.0699,323.4103)">
          <path
             d="m 0,0 -6.298,-0.606 c -0.733,-7.518 -3.874,-39.685 -3.874,-39.685 0,0 18.427,18.22 10.172,40.291"
             style="fill:#8ad9c9;fill-opacity:1;fill-rule:nonzero;stroke:none"
             id="path170" />
        </g>
        <g
           id="g172"
           transform="translate(199.0348,288.3322)">
          <path
             d="m 0,0 c -0.143,0 -0.26,0.113 -0.264,0.258 -0.3,12.083 2.968,24.443 9.202,34.8 0.076,0.126 0.237,0.164 0.362,0.089 C 9.425,35.072 9.465,34.911 9.39,34.786 3.207,24.513 -0.035,12.256 0.264,0.27 0.267,0.125 0.152,0.004 0.007,0 Z"
             style="fill:#008a74;fill-opacity:1;fill-rule:nonzero;stroke:none"
             id="path174" />
        </g>
        <g
           id="g176"
           transform="translate(295.483,237.2487)">
          <path
             d="m 0,0 c -0.115,0 -0.221,0.075 -0.254,0.19 -7.301,25.403 -9.703,52.725 -6.946,79.012 0.014,0.144 0.143,0.252 0.289,0.235 0.145,-0.016 0.25,-0.146 0.235,-0.291 C -9.426,52.927 -7.03,25.675 0.253,0.337 0.293,0.196 0.213,0.051 0.072,0.011 0.048,0.003 0.024,0 0,0"
             style="fill:#008a74;fill-opacity:1;fill-rule:nonzero;stroke:none"
             id="path178" />
        </g>
        <g
           id="g180"
           transform="translate(327.9235,237.0075)">
          <path
             d="m 0,0 h -0.001 c -0.146,0.001 -0.264,0.12 -0.263,0.265 0.032,7.813 -0.615,15.679 -1.924,23.381 -0.023,0.144 0.073,0.28 0.216,0.303 0.143,0.027 0.281,-0.071 0.305,-0.215 C -0.354,16.002 0.295,8.105 0.264,0.263 0.263,0.118 0.145,0 0,0"
             style="fill:#008a74;fill-opacity:1;fill-rule:nonzero;stroke:none"
             id="path182" />
        </g>
        <g
           id="g184"
           transform="translate(153.8414,342.1525)">
          <path
             d="m 0,0 c -0.019,0 -0.038,0.002 -0.057,0.006 -7.385,1.632 -14.944,2.817 -22.467,3.522 -0.144,0.013 -0.251,0.142 -0.238,0.287 0.014,0.145 0.146,0.257 0.287,0.238 C -14.93,3.347 -7.349,2.158 0.057,0.521 0.199,0.489 0.289,0.349 0.257,0.207 0.23,0.083 0.121,0 0,0"
             style="fill:#008a74;fill-opacity:1;fill-rule:nonzero;stroke:none"
             id="path186" />
        </g>
        <g
           id="g188"
           transform="translate(144.6862,344.0573)">
          <path
             d="m 0,0 c -0.047,0 -0.095,0.013 -0.138,0.04 l -6.715,4.123 c -0.124,0.076 -0.162,0.238 -0.086,0.362 0.075,0.124 0.238,0.164 0.362,0.086 L 0.138,0.488 C 0.262,0.412 0.301,0.25 0.225,0.126 0.175,0.044 0.088,0 0,0"
             style="fill:#008a74;fill-opacity:1;fill-rule:nonzero;stroke:none"
             id="path190" />
        </g>
        <g
           id="g192"
           transform="translate(331.5924,239.5798)">
          <path
             d="m 0,0 c -0.113,0 -0.218,0.074 -0.253,0.188 -1.054,3.522 -2.424,6.978 -4.072,10.271 -0.065,0.131 -0.013,0.29 0.118,0.354 0.129,0.064 0.287,0.012 0.353,-0.117 C -2.191,7.374 -0.81,3.89 0.253,0.339 0.295,0.2 0.216,0.053 0.076,0.012 0.051,0.003 0.025,0 0,0"
             style="fill:#008a74;fill-opacity:1;fill-rule:nonzero;stroke:none"
             id="path194" />
        </g>
        <g
           id="g196"
           transform="translate(256.2047,347.3015)">
          <path
             d="m 0,0 2.066,-29.565 c 0,0 -16.87,-8.404 -28.044,-1.859 l 0.391,22.437 z"
             style="fill:#ffaf9d;fill-opacity:1;fill-rule:nonzero;stroke:none"
             id="path198" />
        </g>
        <g
           id="g200"
           transform="translate(230.3634,323.7023)">
          <path
             d="M 0,0 C 14.83,1.258 20.043,9.353 20.043,9.353 L 0.138,7.95 Z"
             style="fill:#c36251;fill-opacity:1;fill-rule:nonzero;stroke:none"
             id="path202" />
        </g>
        <g
           id="g204"
           transform="translate(260.8795,322.6247)">
          <path
             d="M 0,0 -20.256,-1.921 -33.307,0.361 C -33.62,-18.552 -5.785,-18.998 0,0"
             style="fill:#ffaf9d;fill-opacity:1;fill-rule:nonzero;stroke:none"
             id="path206" />
        </g>
        <g
           id="g208"
           transform="translate(257.6842,339.9562)">
          <path
             d="m 0,0 c 5.42,2.689 9.793,7.426 12.042,13.043 2.155,5.385 2.596,11.032 2.776,16.83 1.444,0.545 2.2,2.221 2.157,3.764 -0.043,1.543 -0.714,2.99 -1.371,4.386 1.82,0.035 3.324,1.672 3.687,3.456 0.364,1.784 -0.193,3.637 -1.015,5.261 -1.906,3.774 -5.306,6.766 -9.292,8.178 0.206,5.885 -2.614,11.823 -6.911,15.849 -1.886,1.767 -4.179,3.204 -6.731,3.61 -2.552,0.406 -5.378,-0.362 -7.027,-2.351 -3.504,3.217 -8.434,4.819 -13.16,4.279 -4.725,-0.541 -9.165,-3.217 -11.852,-7.142 -2.352,0.308 -4.445,-0.183 -6.645,-1.069 -2.201,-0.886 -4.133,-2.562 -5.053,-4.748 -0.919,-2.187 -0.713,-4.881 0.758,-6.742 -2.789,-2.281 -4.779,-6.111 -5.087,-9.701 -0.307,-3.59 0.894,-7.284 3.254,-10.006 1.068,-6.133 3.257,-11.931 5.992,-17.523 C -36.493,5.094 -15.776,1.959 0,0"
             style="fill:#002644;fill-opacity:1;fill-rule:nonzero;stroke:none"
             id="path210" />
        </g>
        <g
           id="g212"
           transform="translate(226.2824,396.5695)">
          <path
             d="m 0,0 c 27.605,3.424 42.098,-9.855 39.761,-35.641 -1.86,-20.527 -13.779,-33.3 -33.187,-33.362 -17.877,-0.058 -20.779,14.533 -21.02,29.837 C -14.79,-17.345 -16.392,-2.034 0,0"
             style="fill:#ffaf9d;fill-opacity:1;fill-rule:nonzero;stroke:none"
             id="path214" />
        </g>
        <g
           id="g216"
           transform="translate(211.6666,384.6257)">
          <path
             d="m 0,0 c 0.169,-0.718 0.8,-1.257 1.495,-1.504 0.695,-0.246 1.451,-0.244 2.188,-0.207 4.792,0.242 9.505,1.884 13.41,4.674 -0.713,-1.118 -0.077,-2.702 1.022,-3.444 1.099,-0.742 2.497,-0.849 3.823,-0.868 4.236,-0.062 8.48,0.533 12.535,1.758 -0.69,-1.433 0.335,-3.224 1.771,-3.908 1.435,-0.684 3.112,-0.55 4.689,-0.34 -0.78,-2.619 -0.37,-5.617 0.675,-8.142 1.047,-2.524 2.983,-4.67 5.386,-5.971 -0.724,-2.722 -0.315,-5.728 1.11,-8.157 1.426,-2.431 3.85,-4.254 6.581,-4.949 0.79,7.297 1.52,14.656 -0.052,21.826 -1.571,7.17 -5.225,14.099 -11.152,18.429 -5.228,3.819 -11.82,5.357 -18.287,5.671 C 19.774,15.131 14.179,14.555 9.338,12.104 4.497,9.652 -1.249,5.281 0,0"
             style="fill:#002644;fill-opacity:1;fill-rule:nonzero;stroke:none"
             id="path218" />
        </g>
        <g
           id="g220"
           transform="translate(213.0524,366.4494)">
          <path
             d="M 0,0 C 0,0 6.321,3.026 10.629,3.466 7.507,5.922 2.009,2.732 0,0"
             style="fill:#002644;fill-opacity:1;fill-rule:nonzero;stroke:none"
             id="path222" />
        </g>
        <g
           id="g224"
           transform="translate(245.359,366.2609)">
          <path
             d="M 0,0 C 0,0 -6.203,3.262 -10.492,3.863 -7.279,6.2 -1.905,2.805 0,0"
             style="fill:#002644;fill-opacity:1;fill-rule:nonzero;stroke:none"
             id="path226" />
        </g>
        <g
           id="g228"
           transform="translate(221.5358,357.7639)">
          <path
             d="m 0,0 c 0,-1.369 -0.9,-2.479 -2.011,-2.479 -1.112,0 -2.012,1.11 -2.012,2.479 0,1.369 0.9,2.479 2.012,2.479 C -0.9,2.479 0,1.369 0,0"
             style="fill:#002644;fill-opacity:1;fill-rule:nonzero;stroke:none"
             id="path230" />
        </g>
        <g
           id="g232"
           transform="translate(219.5246,358.6652)">
          <path
             d="m 0,0 c 0,-0.441 -0.283,-0.799 -0.632,-0.799 -0.348,0 -0.631,0.358 -0.631,0.799 0,0.441 0.283,0.798 0.631,0.798 C -0.283,0.798 0,0.441 0,0"
             style="fill:#ffffff;fill-opacity:1;fill-rule:nonzero;stroke:none"
             id="path234" />
        </g>
        <g
           id="g236"
           transform="translate(241.0011,357.7639)">
          <path
             d="m 0,0 c 0,-1.369 -0.901,-2.479 -2.012,-2.479 -1.111,0 -2.011,1.11 -2.011,2.479 0,1.369 0.9,2.479 2.011,2.479 C -0.901,2.479 0,1.369 0,0"
             style="fill:#002644;fill-opacity:1;fill-rule:nonzero;stroke:none"
             id="path238" />
        </g>
        <g
           id="g240"
           transform="translate(238.9894,358.6652)">
          <path
             d="m 0,0 c 0,-0.441 -0.283,-0.799 -0.632,-0.799 -0.348,0 -0.631,0.358 -0.631,0.799 0,0.441 0.283,0.798 0.631,0.798 C -0.283,0.798 0,0.441 0,0"
             style="fill:#ffffff;fill-opacity:1;fill-rule:nonzero;stroke:none"
             id="path242" />
        </g>
        <g
           id="g244"
           transform="translate(227.1364,348.6354)">
          <path
             d="m 0,0 c -0.04,0 -0.078,0.004 -0.118,0.011 -1.183,0.219 -2.019,0.712 -2.42,1.424 -0.225,0.401 -0.42,1.076 -0.066,2.009 0.202,0.531 0.609,1.209 1.04,1.929 0.394,0.657 0.801,1.336 0.965,1.778 0.123,0.329 0.49,0.498 0.821,0.375 C 0.552,7.403 0.72,7.036 0.596,6.706 0.391,6.154 -0.028,5.456 -0.472,4.716 -0.855,4.078 -1.251,3.417 -1.412,2.993 -1.558,2.606 -1.562,2.302 -1.426,2.06 -1.221,1.693 -0.673,1.41 0.116,1.264 0.462,1.2 0.69,0.866 0.625,0.521 0.569,0.214 0.3,0 0,0"
             style="fill:#c36251;fill-opacity:1;fill-rule:nonzero;stroke:none"
             id="path246" />
        </g>
        <g
           id="g248"
           transform="translate(235.1886,344.3786)">
          <path
             d="m 0,0 c -2.607,0.836 -5.409,0.936 -8.1,0.288 -0.398,-0.096 -0.531,-0.46 -0.456,-0.768 0.079,-0.328 0.377,-0.605 0.799,-0.505 2.43,0.586 4.988,0.49 7.396,-0.282 0.072,-0.023 0.142,-0.034 0.21,-0.034 0.144,0 0.276,0.05 0.386,0.15 0.177,0.161 0.26,0.431 0.207,0.674 C 0.393,-0.247 0.231,-0.074 0,0"
             style="fill:#a94938;fill-opacity:1;fill-rule:nonzero;stroke:none"
             id="path250" />
        </g>
        <g
           id="g252"
           transform="translate(261.4537,357.1071)">
          <path
             d="M 0,0 C -1.637,-4.044 -0.46,-7.946 2.468,-9.132 5.396,-10.317 9.097,-8 10.732,-3.956 12.369,0.089 11.321,4.329 8.394,5.514 5.465,6.7 1.636,4.044 0,0"
             style="fill:#ffaf9d;fill-opacity:1;fill-rule:nonzero;stroke:none"
             id="path254" />
        </g>
        <g
           id="g256"
           transform="translate(264.277,351.8918)">
          <path
             d="M 0,0 C -0.262,0 -0.507,0.162 -0.601,0.423 -0.719,0.754 -0.547,1.119 -0.215,1.237 0.437,1.47 1.157,2.087 1.199,2.893 1.216,3.209 1.098,3.519 0.959,3.877 0.823,4.232 0.669,4.633 0.641,5.094 0.587,5.937 0.917,6.817 1.524,7.449 2.298,8.253 3.311,8.646 4.233,8.494 5.77,8.245 6.572,6.749 6.572,5.401 6.572,5.049 6.287,4.764 5.935,4.764 5.582,4.764 5.297,5.049 5.297,5.401 5.297,6.19 4.853,7.103 4.029,7.237 3.422,7.336 2.799,6.936 2.443,6.565 2.08,6.187 1.882,5.667 1.913,5.173 1.929,4.908 2.036,4.629 2.149,4.334 2.314,3.902 2.503,3.413 2.472,2.826 2.398,1.43 1.285,0.419 0.214,0.037 0.143,0.013 0.07,0 0,0"
             style="fill:#c36251;fill-opacity:1;fill-rule:nonzero;stroke:none"
             id="path258" />
        </g>
      </g>
    </g>
  </g>
</svg>
